<svg xmlns="http://www.w3.org/2000/svg" viewBox="0 0 800 520" role="img" aria-label="Teaching and student engagement illustration">
  <rect width="800" height="520" rx="36" fill="#eef4ea"/>
  <rect x="90" y="70" width="620" height="290" rx="28" fill="#2f4f3e"/>
  <rect x="125" y="105" width="550" height="220" rx="16" fill="#ffffff" opacity="0.92"/>
  <text x="160" y="160" font-family="Arial" font-size="30" font-weight="700" fill="#1f352a">Agribusiness Learning</text>
  <path d="M165 235 L245 195 L330 220 L420 150 L520 178 L620 130" fill="none" stroke="#c99a4a" stroke-width="12" stroke-linecap="round" stroke-linejoin="round"/>
  <g fill="#1f352a" opacity="0.9">
    <circle cx="210" cy="420" r="38"/>
    <circle cx="315" cy="420" r="38"/>
    <circle cx="420" cy="420" r="38"/>
    <circle cx="525" cy="420" r="38"/>
    <circle cx="630" cy="420" r="38"/>
  </g>
  <g fill="#c99a4a" opacity="0.35">
    <rect x="175" y="455" width="70" height="30" rx="12"/>
    <rect x="280" y="455" width="70" height="30" rx="12"/>
    <rect x="385" y="455" width="70" height="30" rx="12"/>
    <rect x="490" y="455" width="70" height="30" rx="12"/>
    <rect x="595" y="455" width="70" height="30" rx="12"/>
  </g>
</svg>
