<svg xmlns="http://www.w3.org/2000/svg" viewBox="0 0 1200 800" role="img" aria-label="Abstract agricultural landscape with charts">
  <defs>
    <linearGradient id="sky" x1="0" y1="0" x2="1" y2="1">
      <stop offset="0%" stop-color="#f7efe2"/>
      <stop offset="55%" stop-color="#d9e7d7"/>
      <stop offset="100%" stop-color="#9fbf9b"/>
    </linearGradient>
    <linearGradient id="field" x1="0" y1="0" x2="0" y2="1">
      <stop offset="0%" stop-color="#51765b"/>
      <stop offset="100%" stop-color="#2f4f3e"/>
    </linearGradient>
    <filter id="shadow" x="-20%" y="-20%" width="140%" height="140%">
      <feDropShadow dx="0" dy="18" stdDeviation="24" flood-color="#17291f" flood-opacity="0.25"/>
    </filter>
  </defs>
  <rect width="1200" height="800" rx="46" fill="url(#sky)"/>
  <circle cx="940" cy="160" r="72" fill="#c99a4a" opacity="0.9"/>
  <path d="M0 500 C220 430 350 590 570 510 C780 435 930 435 1200 500 L1200 800 L0 800Z" fill="#c9d9b8"/>
  <path d="M0 590 C250 500 420 710 650 600 C855 500 1030 560 1200 615 L1200 800 L0 800Z" fill="url(#field)"/>
  <g opacity="0.35" stroke="#f7efe2" stroke-width="5" fill="none">
    <path d="M70 760 C260 620 420 560 620 530"/>
    <path d="M250 800 C400 655 520 590 740 540"/>
    <path d="M465 800 C580 670 740 600 965 565"/>
    <path d="M730 800 C820 670 930 625 1125 610"/>
  </g>
  <g filter="url(#shadow)">
    <rect x="110" y="120" width="360" height="250" rx="28" fill="#ffffff" opacity="0.94"/>
    <text x="150" y="180" font-family="Arial, sans-serif" font-size="34" font-weight="700" fill="#1f352a">Agribusiness</text>
    <text x="150" y="224" font-family="Arial, sans-serif" font-size="22" fill="#66736d">Markets • Policy • Data</text>
    <g transform="translate(150 260)" fill="none" stroke-linecap="round" stroke-width="14">
      <path d="M0 62 L68 28 L138 45 L210 0" stroke="#c99a4a"/>
      <path d="M0 95 L68 74 L138 88 L210 54" stroke="#2f4f3e"/>
    </g>
  </g>
  <g transform="translate(760 315)" filter="url(#shadow)">
    <rect width="280" height="190" rx="28" fill="#ffffff" opacity="0.92"/>
    <rect x="42" y="102" width="34" height="52" rx="8" fill="#c99a4a"/>
    <rect x="96" y="72" width="34" height="82" rx="8" fill="#8aa878"/>
    <rect x="150" y="45" width="34" height="109" rx="8" fill="#51765b"/>
    <rect x="204" y="22" width="34" height="132" rx="8" fill="#2f4f3e"/>
    <text x="42" y="48" font-family="Arial, sans-serif" font-size="22" font-weight="700" fill="#1f352a">Applied analysis</text>
  </g>
</svg>
