<svg xmlns="http://www.w3.org/2000/svg" viewBox="0 0 800 520" role="img" aria-label="Specialty crops and research illustration">
  <rect width="800" height="520" rx="36" fill="#f6f4ef"/>
  <path d="M0 365 C140 315 260 410 410 350 C560 290 650 315 800 360 L800 520 L0 520Z" fill="#d4dfc8"/>
  <path d="M0 430 C180 350 300 485 470 410 C610 348 700 395 800 420 L800 520 L0 520Z" fill="#2f4f3e"/>
  <g transform="translate(95 85)">
    <rect width="270" height="180" rx="24" fill="#ffffff"/>
    <circle cx="70" cy="85" r="37" fill="#c99a4a"/>
    <circle cx="132" cy="85" r="37" fill="#8aa878"/>
    <circle cx="194" cy="85" r="37" fill="#51765b"/>
    <text x="38" y="145" font-family="Arial" font-size="24" font-weight="700" fill="#1f352a">Emerging Crops</text>
  </g>
  <g transform="translate(445 95)" fill="none" stroke="#1f352a" stroke-width="10" stroke-linecap="round">
    <path d="M70 220 C70 120 115 45 210 0"/>
    <path d="M95 145 C50 120 25 86 20 42"/>
    <path d="M130 104 C180 93 221 65 248 25"/>
    <path d="M80 196 C32 188 0 160 0 115"/>
  </g>
  <g fill="#c99a4a" opacity="0.9">
    <ellipse cx="465" cy="185" rx="35" ry="52" transform="rotate(-30 465 185)"/>
    <ellipse cx="660" cy="130" rx="38" ry="58" transform="rotate(35 660 130)"/>
    <ellipse cx="560" cy="285" rx="40" ry="55" transform="rotate(20 560 285)"/>
  </g>
</svg>
